<svg id="Layer_1" data-name="Layer 1" xmlns="http://www.w3.org/2000/svg" viewBox="0 0 119.51 42.12"><defs><style>.cls-1{fill:#fff;}</style></defs><path class="cls-1" d="M31.36,1.15c1.77,0,2.38.54,2.38,2.31V7c0,1.77-.61,2.39-2.38,2.39h-10v29.2c0,1.77-.62,2.39-2.39,2.39H14.83c-1.76,0-2.38-.62-2.38-2.39V9.38H2.38C.62,9.38,0,8.76,0,7V3.46C0,1.69.62,1.15,2.38,1.15Z"/><path class="cls-1" d="M54.34,0c11,0,16.45,5.3,16.45,15.83V35.74c0,2.69-.62,3.46-2.77,4.38-3.07,1.31-7.69,2-13.83,2-6.54,0-11-1-13.45-3.08s-3.69-5.14-3.69-9.37c0-9.15,4.91-12.38,17.44-12.38.54,0,3,.16,7.38.39V15.53c0-5-2.15-7.61-7.68-7.61q-5.65,0-8.07,3.69c-1.16,1.61-1.54,1.76-3.31,1.15l-3.07-1.31C38,10.68,37.58,9.53,38.43,8,41.2,2.69,46.5,0,54.34,0Zm7.53,25c-5.38-.23-8.15-.39-8.38-.39-5.53,0-7.37,1.62-7.37,5s1.61,5.15,7.22,5.15A39.53,39.53,0,0,0,61,34.13a1.14,1.14,0,0,0,.84-1.08Z"/><path class="cls-1" d="M116.9,1.15c2.15,0,2.61.62,2.61,2.54V38.58c0,1.85-.61,2.39-2.38,2.39h-3.61c-1.92,0-2.38-.47-2.38-2.39V24.67a54.1,54.1,0,0,1,1.61-11.37h-.31a49.05,49.05,0,0,1-3.92,8.53l-5.38,9.37c-.92,1.47-1.38,1.77-2.92,1.77H98.07c-1.54,0-2.07-.3-2.92-1.84L89.77,21.9a47.86,47.86,0,0,1-3.84-8.68h-.31A67.35,67.35,0,0,1,87.16,24.9V38.58c0,1.85-.54,2.39-2.31,2.39H81.39C79.47,41,79,40.5,79,38.58V3.69c0-1.92.46-2.54,2.61-2.54H84.7c1.92,0,2.53.39,3.38,1.92l11.14,20,11-19.91c.93-1.61,1.46-2,3.31-2Z"/></svg>