<svg id="Layer_1" data-name="Layer 1" xmlns="http://www.w3.org/2000/svg" viewBox="0 0 121.21 55.72"><defs><style>.cls-1{fill:#fff;}</style></defs><path class="cls-1" d="M41.5,52c.93,1.76.46,2.61-1.3,2.61H35.74c-3.38,0-4.3-.38-5.23-2.31l-7.76-15.6a11.57,11.57,0,0,0-3.38-4.3,12.17,12.17,0,0,0-5.77-1.08H9.68V52c0,1.92-.69,2.61-2.61,2.61H2.69C.77,54.57,0,53.88,0,52V2.61C0,.69.77,0,2.69,0H7.07C9,0,9.68.69,9.68,2.61V22.52h4.08L29.21,2.15C30.51.31,31.36,0,34.43,0h4.92c1.77,0,2.23,1.23,1.23,2.54L23.44,24.44q5,2.19,8.3,8.76Z"/><path class="cls-1" d="M61.87,13.6c11,0,16.45,5.31,16.45,15.84v19.9c0,2.69-.62,3.46-2.77,4.38-3.07,1.31-7.68,2-13.83,2-6.54,0-11-1-13.45-3.07s-3.69-5.15-3.69-9.38C44.58,34.12,49.5,30.9,62,30.9c.54,0,3,.15,7.38.38V29.13c0-5-2.15-7.61-7.68-7.61q-5.65,0-8.07,3.69c-1.16,1.61-1.54,1.77-3.31,1.15l-3.07-1.3c-1.69-.77-2.15-1.93-1.31-3.46C48.73,16.29,54,13.6,61.87,13.6Zm7.53,25C64,38.35,61.26,38.2,61,38.2c-5.54,0-7.38,1.61-7.38,5s1.61,5.15,7.22,5.15a39.46,39.46,0,0,0,7.69-.61,1.13,1.13,0,0,0,.84-1.08Z"/><path class="cls-1" d="M120.67,51.73c1,2.07.69,2.84-1.54,2.84h-3.84c-2.69,0-3.23-.31-4.15-2.15L106.37,42.2c-1.23-2.77-2.92-3.77-6.07-3.77H95.46V52.11c0,1.84-.62,2.46-2.54,2.46H89c-1.92,0-2.46-.62-2.46-2.46v-35c0-1.85.54-2.38,2.46-2.38h3.92c1.92,0,2.54.53,2.54,2.38v13h4.22l10.38-13.61c1.15-1.61,1.77-1.76,4.61-1.76h3.77c2.46,0,3,.92,1.54,2.76L108.45,31.9c2.07,1,3.92,3.15,5.53,6.38Z"/></svg>