<svg id="Layer_1" data-name="Layer 1" xmlns="http://www.w3.org/2000/svg" viewBox="0 0 174.95 107.97"><defs><style>.cls-1{fill:#cae5ea;}.cls-2{fill:#63ccce;}.cls-2,.cls-3{stroke:#00767f;}.cls-2,.cls-3,.cls-5{stroke-miterlimit:10;stroke-width:2px;}.cls-3{fill:#fff;stroke-linecap:round;}.cls-4{fill:#ce460b;}.cls-5{fill:none;stroke:#ce460b;}</style></defs><rect class="cls-1" x="71.81" y="27.31" width="30.8" height="43.65" rx="5.81" transform="translate(186.02 65.15) rotate(159.81)"/><rect class="cls-2" x="16.54" y="39.62" width="33.82" height="60.23" rx="5.81" transform="translate(87.35 14.26) rotate(69.81)"/><line class="cls-3" x1="56.95" y1="55.08" x2="6.06" y2="73.8"/><line class="cls-3" x1="60.85" y1="65.66" x2="9.95" y2="84.38"/><line class="cls-3" x1="38.07" y1="53.21" x2="47.68" y2="79.32"/><line class="cls-3" x1="28.84" y1="86.25" x2="19.23" y2="60.14"/><rect class="cls-2" x="124.59" y="-0.12" width="33.82" height="60.23" rx="5.81" transform="translate(120.8 -113.16) rotate(69.81)"/><line class="cls-3" x1="114.1" y1="34.06" x2="165" y2="15.34"/><line class="cls-3" x1="118" y1="44.64" x2="168.89" y2="25.92"/><line class="cls-3" x1="127.27" y1="20.4" x2="136.88" y2="46.51"/><line class="cls-3" x1="155.72" y1="39.58" x2="146.12" y2="13.47"/><rect class="cls-4" x="75.62" y="16.61" width="5.01" height="15.65" rx="2.51" transform="translate(74.09 -57.32) rotate(69.81)"/><rect class="cls-1" x="68.66" y="0.33" width="11.78" height="28.68" rx="2" transform="translate(62.59 -60.36) rotate(69.81)"/><path class="cls-4" d="M69.64,1.31c-4.78,1.76-8.32,4.86-9.48,7.9a1.33,1.33,0,0,0,1.69,1.73l20-7.35A1.33,1.33,0,0,0,82,1.18C79.12-.38,74.41-.45,69.64,1.31Z"/><rect class="cls-5" x="79.51" y="27.39" width="15.4" height="43.48" rx="7.7" transform="translate(103.22 -49.67) rotate(69.81)"/><rect class="cls-5" x="93.42" y="72.21" width="7.21" height="7.21" rx="3.61" transform="translate(134.69 -41.41) rotate(69.81)"/><path class="cls-1" d="M98.9,80.88c-8,1.74-14.13,6.9-16.59,13.08a1.15,1.15,0,0,0,1.34,1.53l35.22-7.7a1.15,1.15,0,0,0,.57-2C114.63,81.25,106.88,79.14,98.9,80.88Z"/><path class="cls-4" d="M107.54,103.59a3.59,3.59,0,0,0-3-2.78l-1.17-8.06-3.7.81,2.3,7.81a3.6,3.6,0,1,0,5.52,2.22Z"/></svg>