<svg id="Layer_1" data-name="Layer 1" xmlns="http://www.w3.org/2000/svg" viewBox="0 0 824 824"><defs><style>.cls-1{fill:#a6bfc4;}.cls-2{fill:#1d779e;}.cls-3{fill:#29abe2;}.cls-4{fill:#81c9e2;}.cls-5{fill:#b5b38f;}.cls-6{fill:#006837;}.cls-7{fill:#009245;}.cls-8{fill:#8cc63f;}</style></defs><path class="cls-1" d="M412,824A412.09,412.09,0,0,1,251.61,32.4,412.09,412.09,0,0,1,572.39,791.6,409.49,409.49,0,0,1,412,824Z"/><path class="cls-2" d="M412,814.4A402.5,402.5,0,0,1,255.36,41.23,402.5,402.5,0,0,1,568.64,782.77,399.85,399.85,0,0,1,412,814.4Z"/><circle class="cls-3" cx="414.43" cy="412.58" r="382.27"/><circle class="cls-4" cx="414.43" cy="412.58" r="352.47"/><circle class="cls-5" cx="414.43" cy="412.58" r="299.76"/><circle class="cls-6" cx="414.43" cy="412.58" r="290.54"/><circle class="cls-7" cx="414.43" cy="412.58" r="256.27"/><circle class="cls-8" cx="414.43" cy="412.58" r="194.53"/></svg>