<svg id="Layer_1" data-name="Layer 1" xmlns="http://www.w3.org/2000/svg" viewBox="0 0 213.56 109.17"><defs><style>.cls-1{fill:#fff;}</style></defs><path class="cls-1" d="M213.56,0A109.17,109.17,0,0,1,207,37.4a110.34,110.34,0,0,1-19.37,33,110.47,110.47,0,0,1-65.82,37.33,111.58,111.58,0,0,1-38.45-.41A111,111,0,0,1,47.4,93.75,109.35,109.35,0,0,1,0,35.59l2,4.32,1,2.15.49,1.08.57,1,2.26,4.16,1.13,2.08,1.28,2,2.55,4,.64,1,.71.94L14,60.2,16.86,64,20,67.5A110.08,110.08,0,0,0,49,91.05a110.41,110.41,0,0,0,72.15,12.7,107.27,107.27,0,0,0,35-12.21,110.26,110.26,0,0,0,29.08-23.22,112.91,112.91,0,0,0,19.9-31.63,109.94,109.94,0,0,0,5.72-17.95l.53-2.31.42-2.32c.26-1.56.58-3.11.75-4.68s.46-3.12.59-4.7Z"/><path class="cls-1" d="M146,0a43,43,0,0,1-3.22,14,43.22,43.22,0,0,1-7.75,12.19,42.65,42.65,0,0,1-25.15,13.53,43,43,0,0,1-28.08-5.29A42.73,42.73,0,0,1,63.49,12.74a44.05,44.05,0,0,0,7.66,12.08,42,42,0,0,0,11.07,9,42.5,42.5,0,0,0,27.53,5,42.28,42.28,0,0,0,24.75-13A44,44,0,0,0,146,0Z"/><path class="cls-1" d="M31.75,24.16A79.23,79.23,0,0,0,45.48,46.23a75.14,75.14,0,0,0,20,16.36,78.14,78.14,0,0,0,24.24,8.75,75.67,75.67,0,0,0,25.74.18A76.17,76.17,0,0,0,160,47.14a76.64,76.64,0,0,0,13.86-21.83A78.78,78.78,0,0,0,179.8,0a76.26,76.26,0,0,1-5,25.68,77.79,77.79,0,0,1-13.61,22.48,75.34,75.34,0,0,1-20.47,16.6,76.35,76.35,0,0,1-24.91,8.73,77.15,77.15,0,0,1-51.07-9.58,76.08,76.08,0,0,1-20-17A76.68,76.68,0,0,1,31.75,24.16Z"/></svg>